<?xml version="1.0" encoding="UTF-8"?>
<svg width="42px" height="34px" viewBox="0 0 42 34" version="1.1" xmlns="http://www.w3.org/2000/svg" xmlns:xlink="http://www.w3.org/1999/xlink">
    <!-- Generator: Sketch 46.2 (44496) - http://www.bohemiancoding.com/sketch -->
    <title>Group</title>
    <desc>Created with Sketch.</desc>
    <defs></defs>
    <g id="Page-1" stroke="none" stroke-width="1" fill="none" fill-rule="evenodd">
        <g id="Artboard-6" transform="translate(-131.000000, -44.000000)" fill-rule="nonzero" fill="#09C269">
            <g id="mailerlitelogo" transform="translate(39.000000, 44.000000)">
                <g id="Group" transform="translate(92.000000, 0.000000)">
                    <path d="M37.3094891,0.242857143 L4.69051095,0.242857143 C2.17664234,0.242857143 0.0919708029,2.30714286 0.0919708029,4.79642857 L0.0919708029,19.975 L0.0919708029,22.95 L0.0919708029,33.7267857 L6.4379562,27.5035714 L37.340146,27.5035714 C39.8540146,27.5035714 41.9386861,25.4392857 41.9386861,22.95 L41.9386861,4.79642857 C41.9080292,2.27678571 39.8540146,0.242857143 37.3094891,0.242857143 Z M9.87153285,20.6428571 C9.87153285,21.3107143 9.31970803,21.8267857 8.64525547,21.8267857 C7.97080292,21.8267857 7.44963504,21.2803571 7.44963504,20.6428571 L7.44963504,7.74107143 C7.44963504,7.07321429 7.97080292,6.52678571 8.64525547,6.52678571 C9.31970803,6.52678571 9.87153285,7.07321429 9.87153285,7.74107143 L9.87153285,20.6428571 Z M15.5737226,20.6428571 C15.5737226,21.3107143 15.0218978,21.8267857 14.3474453,21.8267857 C13.6729927,21.8267857 13.1518248,21.2803571 13.1518248,20.6428571 L13.1518248,12.1125 C13.1518248,11.4446429 13.6729927,10.8982143 14.3474453,10.8982143 C15.0218978,10.8982143 15.5737226,11.4446429 15.5737226,12.1125 L15.5737226,20.6428571 Z M15.7270073,8.22678571 C15.7270073,8.95535714 15.1445255,9.53214286 14.4087591,9.53214286 L14.2861314,9.53214286 C13.550365,9.53214286 12.9678832,8.95535714 12.9678832,8.22678571 L12.9678832,8.13571429 C12.9678832,7.40714286 13.550365,6.83035714 14.2861314,6.83035714 L14.4087591,6.83035714 C15.1445255,6.83035714 15.7270073,7.40714286 15.7270073,8.13571429 L15.7270073,8.22678571 Z M24.3722628,21.5535714 C23.789781,21.8267857 23.2072993,21.9482143 22.5635036,21.9482143 C20.4481752,21.9482143 19.3138686,20.9464286 19.3138686,19.0339286 L19.3138686,13.175 L18.210219,13.175 C17.8116788,13.175 17.5357664,12.8714286 17.5357664,12.5071429 C17.5357664,12.2946429 17.6277372,12.0821429 17.8116788,11.9303571 L20.5094891,9.28928571 C20.5708029,9.22857143 20.7854015,9.01607143 21.0613139,9.01607143 C21.459854,9.01607143 21.7357664,9.31964286 21.7357664,9.71428571 L21.7357664,10.9892857 L23.6978102,10.9892857 C24.3109489,10.9892857 24.8014599,11.475 24.8014599,12.0821429 C24.8014599,12.6892857 24.3109489,13.175 23.6978102,13.175 L21.7664234,13.175 L21.7664234,18.8821429 C21.7664234,19.7017857 22.1956204,19.7625 22.7781022,19.7625 C23.1153285,19.7625 23.2992701,19.7017857 23.4832117,19.6714286 C23.6364964,19.6410714 23.789781,19.5803571 23.9737226,19.5803571 C24.4642336,19.5803571 25.0160584,19.975 25.0160584,20.6125 C24.9854015,21.0071429 24.7708029,21.3714286 24.3722628,21.5535714 Z M31.8832117,19.6714286 C33.140146,19.6714286 33.8452555,19.3982143 34.4583942,19.0946429 C34.6116788,19.0035714 34.7649635,18.9732143 34.9489051,18.9732143 C35.5620438,18.9732143 36.0525547,19.4589286 36.0525547,20.0660714 C36.0525547,20.4607143 35.8072993,20.825 35.3781022,21.0678571 C34.519708,21.5535714 33.6,21.9785714 31.6992701,21.9785714 C28.2656934,21.9785714 26.1810219,19.8839286 26.1810219,16.3928571 C26.1810219,12.2946429 28.940146,10.8071429 31.3007299,10.8071429 C34.7956204,10.8071429 36.389781,13.5696429 36.389781,16.1196429 C36.389781,16.8178571 35.8686131,17.3035714 35.1635036,17.3035714 L28.7255474,17.3035714 C29.0321168,18.8517857 30.1357664,19.6714286 31.8832117,19.6714286 Z" id="Shape"></path>
                    <path d="M31.3313869,12.9625 C30.1664234,12.9625 28.940146,13.6607143 28.7255474,15.2696429 L33.9678832,15.2696429 C33.7226277,13.6607143 32.4963504,12.9625 31.3313869,12.9625 Z" id="Shape"></path>
                </g>
            </g>
        </g>
    </g>
</svg>